<?xml version="1.0" encoding="UTF-8"?>
<!DOCTYPE svg PUBLIC "-//W3C//DTD SVG 1.1//EN" "http://www.w3.org/Graphics/SVG/1.1/DTD/svg11.dtd">
<svg version="1.2" width="177.8mm" height="177.8mm" viewBox="0 0 17780 17780" preserveAspectRatio="xMidYMid" fill-rule="evenodd" stroke-width="28.222" stroke-linejoin="round" xmlns="http://www.w3.org/2000/svg" xmlns:ooo="http://xml.openoffice.org/svg/export" xmlns:xlink="http://www.w3.org/1999/xlink" xmlns:presentation="http://sun.com/xmlns/staroffice/presentation" xmlns:smil="http://www.w3.org/2001/SMIL20/" xmlns:anim="urn:oasis:names:tc:opendocument:xmlns:animation:1.0" xml:space="preserve">
 <defs class="ClipPathGroup">
  <clipPath id="presentation_clip_path" clipPathUnits="userSpaceOnUse">
   <rect x="0" y="0" width="17780" height="17780"/>
  </clipPath>
  <clipPath id="presentation_clip_path_shrink" clipPathUnits="userSpaceOnUse">
   <rect x="17" y="17" width="17745" height="17745"/>
  </clipPath>
 </defs>
 <defs class="TextShapeIndex">
  <g ooo:slide="id1" ooo:id-list="id3 id4 id5 id6 id7"/>
 </defs>
 <defs class="EmbeddedBulletChars">
  <g id="bullet-char-template-57356" transform="scale(0.00048828125,-0.00048828125)">
   <path d="M 580,1141 L 1163,571 580,0 -4,571 580,1141 Z"/>
  </g>
  <g id="bullet-char-template-57354" transform="scale(0.00048828125,-0.00048828125)">
   <path d="M 8,1128 L 1137,1128 1137,0 8,0 8,1128 Z"/>
  </g>
  <g id="bullet-char-template-10146" transform="scale(0.00048828125,-0.00048828125)">
   <path d="M 174,0 L 602,739 174,1481 1456,739 174,0 Z M 1358,739 L 309,1346 659,739 1358,739 Z"/>
  </g>
  <g id="bullet-char-template-10132" transform="scale(0.00048828125,-0.00048828125)">
   <path d="M 2015,739 L 1276,0 717,0 1260,543 174,543 174,936 1260,936 717,1481 1274,1481 2015,739 Z"/>
  </g>
  <g id="bullet-char-template-10007" transform="scale(0.00048828125,-0.00048828125)">
   <path d="M 0,-2 C -7,14 -16,27 -25,37 L 356,567 C 262,823 215,952 215,954 215,979 228,992 255,992 264,992 276,990 289,987 310,991 331,999 354,1012 L 381,999 492,748 772,1049 836,1024 860,1049 C 881,1039 901,1025 922,1006 886,937 835,863 770,784 769,783 710,716 594,584 L 774,223 C 774,196 753,168 711,139 L 727,119 C 717,90 699,76 672,76 641,76 570,178 457,381 L 164,-76 C 142,-110 111,-127 72,-127 30,-127 9,-110 8,-76 1,-67 -2,-52 -2,-32 -2,-23 -1,-13 0,-2 Z"/>
  </g>
  <g id="bullet-char-template-10004" transform="scale(0.00048828125,-0.00048828125)">
   <path d="M 285,-33 C 182,-33 111,30 74,156 52,228 41,333 41,471 41,549 55,616 82,672 116,743 169,778 240,778 293,778 328,747 346,684 L 369,508 C 377,444 397,411 428,410 L 1163,1116 C 1174,1127 1196,1133 1229,1133 1271,1133 1292,1118 1292,1087 L 1292,965 C 1292,929 1282,901 1262,881 L 442,47 C 390,-6 338,-33 285,-33 Z"/>
  </g>
  <g id="bullet-char-template-9679" transform="scale(0.00048828125,-0.00048828125)">
   <path d="M 813,0 C 632,0 489,54 383,161 276,268 223,411 223,592 223,773 276,916 383,1023 489,1130 632,1184 813,1184 992,1184 1136,1130 1245,1023 1353,916 1407,772 1407,592 1407,412 1353,268 1245,161 1136,54 992,0 813,0 Z"/>
  </g>
  <g id="bullet-char-template-8226" transform="scale(0.00048828125,-0.00048828125)">
   <path d="M 346,457 C 273,457 209,483 155,535 101,586 74,649 74,723 74,796 101,859 155,911 209,963 273,989 346,989 419,989 480,963 531,910 582,859 608,796 608,723 608,648 583,586 532,535 482,483 420,457 346,457 Z"/>
  </g>
  <g id="bullet-char-template-8211" transform="scale(0.00048828125,-0.00048828125)">
   <path d="M -4,459 L 1135,459 1135,606 -4,606 -4,459 Z"/>
  </g>
  <g id="bullet-char-template-61548" transform="scale(0.00048828125,-0.00048828125)">
   <path d="M 173,740 C 173,903 231,1043 346,1159 462,1274 601,1332 765,1332 928,1332 1067,1274 1183,1159 1299,1043 1357,903 1357,740 1357,577 1299,437 1183,322 1067,206 928,148 765,148 601,148 462,206 346,322 231,437 173,577 173,740 Z"/>
  </g>
 </defs>
 <g>
  <g id="id2" class="Master_Slide">
   <g id="bg-id2" class="Background"/>
   <g id="bo-id2" class="BackgroundObjects"/>
  </g>
 </g>
 <g class="SlideGroup">
  <g>
   <g id="container-id1">
    <g id="id1" class="Slide" clip-path="url(#presentation_clip_path)">
     <g class="Page">
      <g class="com.sun.star.drawing.ClosedBezierShape">
       <g id="id3">
        <rect class="BoundingBox" stroke="none" fill="none" x="-1" y="-2" width="17783" height="17784"/>
        <g>
         <defs>
          <linearGradient id="gradient1" x1="8890" y1="17779" x2="8890" y2="-2" gradientUnits="userSpaceOnUse">
           <stop offset="0" style="stop-color:rgb(248,241,197)"/>
           <stop offset="1" style="stop-color:rgb(249,2,20)"/>
          </linearGradient>
         </defs>
         <path style="fill:url(#gradient1)" d="M 17781,8889 L 17761,8306 17704,7727 17609,7154 17478,6588 17309,6033 17105,5490 16865,4959 16589,4444 16281,3948 15942,3475 15573,3026 15177,2603 14753,2206 14304,1838 13831,1499 13335,1190 12820,915 12290,675 11746,470 11191,302 10626,170 10053,75 9474,18 8890,-1 8306,18 7727,75 7154,170 6589,302 6034,470 5490,675 4960,915 4445,1190 3949,1499 3476,1838 3027,2206 2604,2603 2207,3026 1838,3475 1499,3948 1191,4444 915,4959 675,5490 471,6033 302,6588 171,7154 76,7727 19,8306 0,8889 19,9473 76,10052 171,10625 302,11191 471,11746 675,12289 915,12820 1191,13335 1499,13831 1838,14304 2207,14753 2604,15176 3027,15573 3476,15941 3949,16280 4445,16589 4960,16864 5490,17104 6034,17309 6589,17477 7154,17609 7727,17704 8306,17761 8890,17780 9474,17761 10053,17704 10626,17609 11191,17477 11746,17309 12290,17104 12820,16864 13335,16589 13831,16280 14304,15941 14753,15573 15177,15176 15573,14753 15942,14304 16281,13831 16589,13335 16865,12820 17105,12289 17309,11746 17478,11191 17609,10625 17704,10052 17761,9473 17781,8890 17781,8889 Z"/>
        </g>
       </g>
      </g>
      <g class="com.sun.star.drawing.CustomShape">
       <g id="id4">
        <rect class="BoundingBox" stroke="none" fill="none" x="6350" y="3174" width="5083" height="6988"/>
        <path fill="rgb(255,255,255)" stroke="none" d="M 8891,3175 L 11431,3175 11431,10160 6351,10160 6351,3175 8891,3175 Z"/>
        <path fill="none" stroke="rgb(255,255,255)" d="M 8891,3175 L 11431,3175 11431,10160 6351,10160 6351,3175 8891,3175 Z"/>
       </g>
      </g>
      <g class="com.sun.star.drawing.ClosedBezierShape">
       <g id="id5">
        <rect class="BoundingBox" stroke="none" fill="none" x="2667" y="6780" width="6226" height="8589"/>
        <path fill="rgb(255,255,255)" stroke="none" d="M 3938,6858 C 2746,6479 2668,7620 2668,7620 2668,8128 2922,8382 3049,8636 3376,9141 5986,12584 7494,14478 8223,15394 8891,15367 8891,15367 L 8891,7747 C 8129,7747 5716,7366 3938,6858 Z"/>
        <path fill="none" stroke="rgb(255,255,255)" d="M 3938,6858 C 2746,6479 2668,7620 2668,7620 2668,8128 2922,8382 3049,8636 3376,9141 5986,12584 7494,14478 8223,15394 8891,15367 8891,15367 L 8891,7747 C 8129,7747 5716,7366 3938,6858 Z"/>
       </g>
      </g>
      <g class="com.sun.star.drawing.ClosedBezierShape">
       <g id="id6">
        <rect class="BoundingBox" stroke="none" fill="none" x="8890" y="6780" width="6226" height="8589"/>
        <path fill="rgb(255,255,255)" stroke="none" d="M 13844,6858 C 15036,6479 15114,7620 15114,7620 15114,8128 14860,8382 14733,8636 14406,9141 11796,12584 10288,14478 9559,15394 8891,15367 8891,15367 L 8891,7747 C 9653,7747 12066,7366 13844,6858 Z"/>
        <path fill="none" stroke="rgb(255,255,255)" d="M 13844,6858 C 15036,6479 15114,7620 15114,7620 15114,8128 14860,8382 14733,8636 14406,9141 11796,12584 10288,14478 9559,15394 8891,15367 8891,15367 L 8891,7747 C 9653,7747 12066,7366 13844,6858 Z"/>
       </g>
      </g>
      <g class="com.sun.star.drawing.ConnectorShape">
       <g id="id7">
        <rect class="BoundingBox" stroke="none" fill="none" x="18779" y="9889" width="3" height="3"/>
        <path fill="none" stroke="rgb(52,101,164)" d="M 18780,9890 L 18780,9890 Z"/>
       </g>
      </g>
     </g>
    </g>
   </g>
  </g>
 </g>
</svg>